<?xml version="1.0" encoding="UTF-8"?>
<!DOCTYPE svg  PUBLIC '-//W3C//DTD SVG 1.1//EN'  'http://www.w3.org/Graphics/SVG/1.1/DTD/svg11.dtd'>
<svg clip-rule="evenodd" fill-rule="evenodd" stroke-linejoin="round" stroke-miterlimit="2" version="1.1" viewBox="0 0 18 16" xml:space="preserve" xmlns="http://www.w3.org/2000/svg">
    <g transform="translate(-6.3103 -7.3963)">
        <path d="m19.469 12.044c-0.317-0.181-0.725-0.181-1.088 0l-2.542 1.49-1.724 0.947-2.496 1.489c-0.317 0.181-0.725 0.181-1.088 0l-1.952-1.173c-0.336-0.197-0.544-0.558-0.544-0.948v-2.256c0-0.361 0.181-0.722 0.544-0.948l1.952-1.127c0.317-0.181 0.725-0.181 1.088 0l1.952 1.173c0.336 0.197 0.544 0.558 0.544 0.947v1.489l1.724-0.993v-1.534c0-0.361-0.181-0.722-0.544-0.947l-3.63-2.121c-0.318-0.181-0.726-0.181-1.089 0l-3.721 2.166c-0.363 0.181-0.545 0.541-0.545 0.902v4.242c0 0.361 0.181 0.722 0.545 0.948l3.676 2.121c0.317 0.18 0.725 0.18 1.088 0l2.496-1.445 1.724-0.992 2.496-1.444c0.318-0.181 0.726-0.181 1.089 0l1.952 1.128c0.336 0.196 0.544 0.558 0.544 0.947v2.257c0 0.361-0.181 0.722-0.544 0.948l-1.907 1.128c-0.317 0.181-0.725 0.181-1.088 0l-1.952-1.128c-0.336-0.197-0.544-0.558-0.544-0.948v-1.444l-1.724 0.993v1.489c0 0.361 0.181 0.722 0.544 0.948l3.676 2.12c0.317 0.181 0.725 0.181 1.088 0l3.676-2.12c0.337-0.197 0.544-0.558 0.545-0.948v-4.287c0-0.361-0.181-0.722-0.545-0.947l-3.676-2.121v-1e-3z" fill="current" fill-rule="nonzero"/>
    </g>
</svg>