<?xml version="1.0" encoding="UTF-8" standalone="no"?>
<!DOCTYPE svg PUBLIC "-//W3C//DTD SVG 1.1//EN" "http://www.w3.org/Graphics/SVG/1.1/DTD/svg11.dtd">
<svg width="100%" height="100%" viewBox="0 0 577 494" version="1.1" xmlns="http://www.w3.org/2000/svg" xmlns:xlink="http://www.w3.org/1999/xlink" xml:space="preserve" xmlns:serif="http://www.serif.com/" style="fill-rule:evenodd;clip-rule:evenodd;stroke-linejoin:round;stroke-miterlimit:2;">
    <g transform="matrix(1,0,0,1,-311.75,-203.25)">
        <path d="M481.172,691.6C490.427,683.78 496.048,671.427 494.574,659.401C493.1,647.375 483.969,636.319 472.125,633.765C460.281,631.212 446.78,638.281 443.183,649.851C441.203,627.545 438.921,604.304 427.062,585.308C416.324,568.108 397.725,555.801 377.568,553.599C357.411,551.397 336.188,559.713 323.617,575.623C311.046,591.533 307.968,614.662 316.772,632.928C323.258,646.383 335.208,656.397 347.728,664.544C388.174,690.641 436.72,701.261 484.368,694.437" style="fill:rgb(242,242,242);fill-rule:nonzero;"/>
    </g>
    <g transform="matrix(1,0,0,1,-311.75,-203.25)">
        <path d="M343.55,560.174C360.182,573.721 375.44,588.873 389.104,605.409C410.487,631.2 427.791,660.116 440.412,691.15C441.336,693.414 437.659,694.4 436.746,692.161C428.72,672.54 418.79,653.752 407.099,636.067C388.868,608.442 366.532,583.757 340.861,562.863C338.963,561.317 341.667,558.641 343.55,560.174L343.55,560.174Z" style="fill:white;fill-rule:nonzero;"/>
    </g>
    <g transform="matrix(1,0,0,1,-311.75,-203.25)">
        <path d="M487.565,691.6C478.31,683.78 472.689,671.427 474.163,659.401C475.637,647.375 484.768,636.319 496.612,633.765C508.456,631.212 521.957,638.281 525.554,649.851C527.534,627.545 529.815,604.304 541.675,585.308C552.413,568.108 571.012,555.801 591.169,553.599C611.326,551.397 632.549,559.713 645.12,575.623C657.691,591.533 660.769,614.662 651.965,632.928C645.479,646.383 633.529,656.397 621.009,664.544C580.563,690.641 532.017,701.261 484.368,694.437" style="fill:rgb(242,242,242);fill-rule:nonzero;"/>
    </g>
    <g transform="matrix(1,0,0,1,-311.75,-203.25)">
        <path d="M625.187,560.174C608.555,573.721 593.297,588.873 579.633,605.409C558.25,631.2 540.946,660.116 528.325,691.15C527.401,693.414 531.078,694.4 531.991,692.161C552.64,641.727 585.611,597.267 627.876,562.863C629.774,561.317 627.07,558.641 625.187,560.174L625.187,560.174Z" style="fill:white;fill-rule:nonzero;"/>
    </g>
    <circle cx="203.277" cy="191" r="31" style="fill:rgb(242,242,242);"/>
    <g transform="matrix(1,0,0,1,-311.75,-203.25)">
        <path d="M419.445,287.388L633.027,287.388L633.027,299.073L446.711,299.073C400.949,299.073 363.293,336.729 363.293,382.491L363.293,515.25L339.922,515.25C337.785,515.25 336.027,513.492 336.027,511.355L336.027,370.806C336.027,325.044 373.684,287.388 419.445,287.388Z" style="fill:rgb(242,242,242);fill-rule:nonzero;"/>
    </g>
    <g transform="matrix(1,0,0,1,-311.75,-203.25)">
        <path d="M460.527,692.25L460.527,514.75L512.527,514.75L512.527,692.25C512.524,694.718 510.495,696.747 508.027,696.75L465.027,696.75C462.56,696.747 460.53,694.718 460.527,692.25Z" style="fill:rgb(59,59,59);fill-rule:nonzero;"/>
    </g>
    <g transform="matrix(1,0,0,1,-311.75,-203.25)">
        <path d="M325.027,511.25L325.027,366.916C325.081,319.393 364.17,280.304 411.692,280.25L632.027,280.25L632.027,516.25L330.027,516.25C327.285,516.247 325.03,513.992 325.027,511.25ZM630.027,282.25L411.692,282.25C365.266,282.303 327.08,320.489 327.027,366.916L327.027,511.25C327.029,512.895 328.382,514.248 330.027,514.25L630.027,514.25L630.027,282.25Z" style="fill:rgb(63,61,86);fill-rule:nonzero;"/>
    </g>
    <g transform="matrix(1,0,0,1,-311.75,-203.25)">
        <path d="M515.027,410.25C505.157,410.239 497.038,402.12 497.027,392.25L497.027,263.25C497.025,261.605 495.672,260.252 494.027,260.25L424.027,260.25C421.285,260.247 419.03,257.992 419.027,255.25L419.027,208.25C419.03,205.508 421.285,203.253 424.027,203.25L528.027,203.25C530.769,203.253 533.024,205.508 533.027,208.25L533.027,392.25C533.016,402.12 524.897,410.239 515.027,410.25Z" style="fill-rule:nonzero;"/>
    </g>
    <g transform="matrix(1,0,0,1,-311.75,-203.25)">
        <path d="M640.027,278.25C671.231,278.185 696.962,303.808 697.027,335.011L697.027,499.321L809.027,499.321C818.334,499.302 826.008,506.944 826.027,516.25L583.027,516.25L583.027,335.011C583.093,303.808 608.823,278.185 640.027,278.25Z" style="fill:rgb(59,59,59);fill-rule:nonzero;"/>
    </g>
    <g id="Letter" transform="matrix(1.04916,0,0,1.04916,-39.2526,-20.6867)">
        <g transform="matrix(1,0,0,1,-311.75,-203.25)">
            <path d="M626.349,371.817L638.152,420.574L869.033,364.682L857.23,315.926C856.941,314.716 856.05,313.735 854.873,313.331C854.445,313.18 853.992,313.112 853.539,313.13L720.079,244.028C718.471,243.207 716.483,243.684 715.423,245.147L651.103,334.841L626.855,368.664C626.766,368.784 626.734,368.937 626.766,369.082C626.273,369.903 626.123,370.887 626.349,371.817Z" style="fill:white;fill-rule:nonzero;"/>
        </g>
        <g transform="matrix(1,0,0,1,-311.75,-203.25)">
            <path d="M626.766,369.082C626.789,369.21 626.862,369.324 626.969,369.398C627.096,369.485 627.253,369.516 627.403,369.484C627.523,369.451 627.629,369.378 627.702,369.276L627.785,369.161L629.047,367.395L651.976,335.431L716.277,245.758C717.032,244.712 718.452,244.372 719.599,244.962L852.024,313.528L853.213,314.145C853.261,314.165 853.31,314.183 853.36,314.197C853.45,314.181 853.541,314.172 853.632,314.171C853.756,314.129 853.86,314.042 853.921,313.926C853.961,313.851 853.982,313.766 853.982,313.681C853.982,313.487 853.874,313.308 853.703,313.217L853.539,313.13L720.079,244.028C718.471,243.207 716.483,243.684 715.423,245.147L651.103,334.841L626.855,368.664C626.766,368.784 626.734,368.937 626.766,369.082Z" style="fill:rgb(63,61,86);fill-rule:nonzero;"/>
        </g>
        <g transform="matrix(1,0,0,1,-311.75,-203.25)">
            <path d="M696.107,374.054L701.247,374.624L739.389,378.849L764.675,381.649L766.169,381.815L797.721,357.17L798.93,356.226L806.382,350.406L832.895,329.699L833.055,328.245L842.485,243.131C842.751,240.707 840.979,238.492 838.556,238.219L712.7,224.278C710.276,224.013 708.062,225.784 707.788,228.207L701.138,288.244L697.449,321.53L694.149,351.309L692.619,365.138L692.173,369.144C691.91,371.568 693.683,373.782 696.107,374.054Z" style="fill:rgb(230,230,230);fill-rule:nonzero;"/>
        </g>
        <g transform="matrix(1,0,0,1,-311.75,-203.25)">
            <path d="M730.692,299.448L785.209,305.486L804.543,307.627C804.782,307.653 805.022,307.666 805.262,307.666C808.85,307.666 811.802,304.714 811.802,301.127C811.802,297.81 809.279,294.992 805.982,294.627L781.936,291.963L732.136,286.442C731.898,286.415 731.658,286.402 731.418,286.402C727.828,286.402 724.875,289.356 724.875,292.945C724.875,296.262 727.396,299.08 730.692,299.448Z" style="fill:white;fill-rule:nonzero;"/>
        </g>
        <g transform="matrix(1,0,0,1,-311.75,-203.25)">
            <path d="M727.588,323.564C727.729,323.589 727.87,323.614 728.013,323.628L791.298,330.639L801.864,331.812C802.103,331.838 802.343,331.851 802.584,331.851C806.173,331.851 809.126,328.898 809.126,325.309C809.126,321.991 806.601,319.172 803.303,318.807L788.025,317.116L737.894,311.562L729.458,310.627C729.217,310.6 728.975,310.586 728.733,310.586C725.146,310.586 722.194,313.538 722.194,317.126C722.194,320.283 724.48,323.011 727.588,323.564L727.588,323.564Z" style="fill:white;fill-rule:nonzero;"/>
        </g>
        <g transform="matrix(1,0,0,1,-311.75,-203.25)">
            <path d="M720.426,344.948C721.476,346.692 723.283,347.849 725.306,348.073L751.245,350.946L797.442,356.064L797.452,356.061L798.93,356.226L806.382,350.406C806.428,349.964 806.428,349.518 806.383,349.076C806.06,346.028 803.642,343.594 800.596,343.252L794.179,342.539L768.722,339.722L750.405,337.69L726.745,335.068C726.506,335.042 726.266,335.028 726.025,335.028C722.438,335.028 719.485,337.981 719.485,341.568C719.485,342.759 719.811,343.928 720.426,344.948L720.426,344.948Z" style="fill:white;fill-rule:nonzero;"/>
        </g>
        <g transform="matrix(1,0,0,1,-311.75,-203.25)">
            <path d="M756.859,269.97L770.423,271.472L776.414,272.137L785.465,273.139C785.703,273.165 785.944,273.178 786.184,273.178C789.773,273.178 792.726,270.225 792.726,266.636C792.726,263.318 790.201,260.499 786.903,260.134L758.304,256.968C758.064,256.942 757.823,256.928 757.581,256.928C753.993,256.928 751.041,259.881 751.041,263.469C751.041,266.785 753.563,269.603 756.859,269.97L756.859,269.97Z" style="fill:white;fill-rule:nonzero;"/>
        </g>
        <g transform="matrix(1,0,0,1,-311.75,-203.25)">
            <path d="M645.944,306.182L662.481,374.496L690.082,379.744L715.614,384.605L743.008,389.817L751.761,391.483C752.797,391.679 753.869,391.419 754.7,390.771L761.722,385.287L766.169,381.815L797.721,357.17L777.659,274.296C777.461,273.472 777.028,272.722 776.414,272.137C775.321,271.087 773.764,270.665 772.29,271.02L649.22,300.813C646.85,301.388 645.371,303.811 645.944,306.182Z" style="fill-rule:nonzero;"/>
        </g>
        <g transform="matrix(1,0,0,1,-311.75,-203.25)">
            <path d="M683.864,360.528C684.711,364.013 688.273,366.187 691.76,365.346L763.974,347.864C767.458,347.016 769.631,343.455 768.792,339.968C768.774,339.885 768.75,339.802 768.722,339.722C767.769,336.365 764.289,334.331 760.896,335.15L688.682,352.632C685.197,353.479 683.023,357.041 683.864,360.528Z" style="fill:white;fill-rule:nonzero;"/>
        </g>
        <g transform="matrix(1,0,0,1,-311.75,-203.25)">
            <path d="M690.082,379.744L715.614,384.605L769.699,371.512C772.624,370.804 774.7,368.164 774.7,365.155C774.7,361.567 771.748,358.615 768.16,358.615C767.642,358.615 767.125,358.676 766.621,358.798L694.407,376.28C692.898,376.642 691.568,377.534 690.659,378.791C690.44,379.092 690.247,379.411 690.082,379.744Z" style="fill:white;fill-rule:nonzero;"/>
        </g>
        <g transform="matrix(1,0,0,1,-311.75,-203.25)">
            <path d="M743.008,389.817L751.761,391.483C752.797,391.679 753.869,391.419 754.7,390.771L761.722,385.287L743.008,389.817Z" style="fill:white;fill-rule:nonzero;"/>
        </g>
        <g transform="matrix(1,0,0,1,-311.75,-203.25)">
            <path d="M698.415,323.897C699.262,327.382 702.824,329.556 706.311,328.715L734.281,321.944C737.765,321.095 739.938,317.534 739.099,314.048C738.881,313.142 738.47,312.294 737.894,311.562C736.316,309.544 733.693,308.629 731.203,309.23L703.233,316.001C699.746,316.845 697.571,320.409 698.415,323.897L698.415,323.897Z" style="fill:white;fill-rule:nonzero;"/>
        </g>
        <g transform="matrix(1,0,0,1,-311.75,-203.25)">
            <path d="M715.612,384.604L743.01,389.818L751.761,391.484C752.796,391.678 753.866,391.419 754.699,390.773L761.726,385.287L759.26,385.884L754.054,389.945C753.46,390.406 752.695,390.591 751.955,390.453L745.476,389.221L718.078,384.007L715.612,384.604ZM797.45,356.065L797.717,357.167L798.932,356.222L797.45,356.065ZM715.612,384.604L743.01,389.818L751.761,391.484C752.796,391.678 753.866,391.419 754.699,390.773L761.726,385.287L759.26,385.884L754.054,389.945C753.46,390.406 752.695,390.591 751.955,390.453L745.476,389.221L718.078,384.007L715.612,384.604ZM715.612,384.604L743.01,389.818L751.761,391.484C752.796,391.678 753.866,391.419 754.699,390.773L761.726,385.287L759.26,385.884L754.054,389.945C753.46,390.406 752.695,390.591 751.955,390.453L745.476,389.221L718.078,384.007L715.612,384.604ZM626.349,371.817L657.265,499.528C657.74,501.48 659.734,502.697 661.687,502.226L885.448,448.058C887.4,447.584 888.617,445.589 888.146,443.636L857.23,315.926C856.941,314.716 856.05,313.735 854.873,313.331C854.445,313.18 853.992,313.112 853.539,313.13C853.01,313.145 852.492,313.282 852.024,313.528C851.809,313.631 851.605,313.757 851.417,313.905L833.053,328.245L806.383,349.079L797.448,356.058L797.45,356.065L797.442,356.067L764.676,381.645L759.26,385.884L754.054,389.945C753.46,390.406 752.695,390.591 751.955,390.453L745.476,389.221L718.078,384.007L690.656,378.792L630.595,367.362C630.083,367.261 629.555,367.272 629.047,367.395C628.365,367.562 627.744,367.922 627.259,368.431C627.074,368.631 626.909,368.849 626.766,369.082C626.273,369.903 626.123,370.887 626.349,371.817ZM715.612,384.604L743.01,389.818L751.761,391.484C752.796,391.678 753.866,391.419 754.699,390.773L761.726,385.287L759.26,385.884L754.054,389.945C753.46,390.406 752.695,390.591 751.955,390.453L745.476,389.221L718.078,384.007L715.612,384.604ZM715.612,384.604L743.01,389.818L751.761,391.484C752.796,391.678 753.866,391.419 754.699,390.773L761.726,385.287L759.26,385.884L754.054,389.945C753.46,390.406 752.695,390.591 751.955,390.453L745.476,389.221L718.078,384.007L715.612,384.604ZM715.612,384.604L743.01,389.818L751.761,391.484C752.796,391.678 753.866,391.419 754.699,390.773L761.726,385.287L759.26,385.884L754.054,389.945C753.46,390.406 752.695,390.591 751.955,390.453L745.476,389.221L718.078,384.007L715.612,384.604Z" style="fill:white;fill-rule:nonzero;"/>
        </g>
        <g transform="matrix(1,0,0,1,-311.75,-203.25)">
            <path d="M715.612,384.604L743.01,389.818L751.761,391.484C752.796,391.678 753.866,391.419 754.699,390.773L761.726,385.287L759.26,385.884L754.054,389.945C753.46,390.406 752.695,390.591 751.955,390.453L745.476,389.221L718.078,384.007L715.612,384.604ZM797.45,356.065L797.717,357.167L798.932,356.222L797.45,356.065ZM715.612,384.604L743.01,389.818L751.761,391.484C752.796,391.678 753.866,391.419 754.699,390.773L761.726,385.287L759.26,385.884L754.054,389.945C753.46,390.406 752.695,390.591 751.955,390.453L745.476,389.221L718.078,384.007L715.612,384.604ZM715.612,384.604L743.01,389.818L751.761,391.484C752.796,391.678 753.866,391.419 754.699,390.773L761.726,385.287L759.26,385.884L754.054,389.945C753.46,390.406 752.695,390.591 751.955,390.453L745.476,389.221L718.078,384.007L715.612,384.604ZM627.785,369.161L627.921,369.263C627.944,369.226 627.983,369.192 628.013,369.153C628.628,368.513 629.526,368.224 630.398,368.386L690.084,379.74L715.612,384.604L743.01,389.818L751.761,391.484C752.796,391.678 753.866,391.419 754.699,390.773L761.726,385.287L759.26,385.884L754.054,389.945C753.46,390.406 752.695,390.591 751.955,390.453L745.476,389.221L718.078,384.007L690.656,378.792L630.595,367.362C630.083,367.261 629.555,367.272 629.047,367.395L627.785,369.161ZM626.349,371.818L657.265,499.528C657.74,501.48 659.734,502.697 661.687,502.226L885.448,448.058C887.4,447.584 888.617,445.589 888.146,443.636L857.23,315.926C856.941,314.716 856.05,313.735 854.873,313.331C854.445,313.18 853.992,313.112 853.539,313.13C853.01,313.145 852.492,313.282 852.024,313.528C851.809,313.631 851.605,313.757 851.417,313.905L833.053,328.245L806.383,349.079L797.448,356.058L797.45,356.065L797.442,356.067L764.676,381.645L759.26,385.884L754.054,389.945C753.46,390.406 752.695,390.591 751.955,390.453L745.476,389.221L718.078,384.007L690.656,378.792L630.595,367.362C630.083,367.261 629.555,367.272 629.047,367.395C628.365,367.562 627.744,367.922 627.259,368.431C627.074,368.631 626.909,368.849 626.766,369.082C626.273,369.903 626.123,370.887 626.349,371.817L626.349,371.818ZM627.369,371.571C627.184,370.809 627.354,370.003 627.83,369.38C627.851,369.335 627.882,369.295 627.921,369.263C627.944,369.226 627.983,369.192 628.013,369.153C628.628,368.513 629.526,368.225 630.398,368.386L690.084,379.74L715.612,384.604L743.01,389.818L751.761,391.484C752.796,391.678 753.866,391.419 754.699,390.773L761.726,385.287L766.17,381.815L797.717,357.167L798.932,356.222L806.378,350.405L832.897,329.695L852.068,314.724C852.359,314.497 852.696,314.334 853.055,314.247C853.155,314.222 853.257,314.206 853.36,314.197C853.45,314.181 853.541,314.172 853.632,314.171C853.938,314.168 854.243,314.218 854.532,314.318C855.371,314.61 856.007,315.308 856.218,316.171L887.134,443.881C887.184,444.084 887.208,444.291 887.208,444.5C887.208,445.706 886.375,446.764 885.203,447.046L661.442,501.214C660.046,501.55 658.621,500.677 658.285,499.281L627.369,371.571ZM715.612,384.604L743.01,389.818L751.761,391.484C752.796,391.678 753.866,391.419 754.699,390.773L761.726,385.287L759.26,385.884L754.054,389.945C753.46,390.406 752.695,390.591 751.955,390.453L745.476,389.221L718.078,384.007L715.612,384.604ZM715.612,384.604L743.01,389.818L751.761,391.484C752.796,391.678 753.866,391.419 754.699,390.773L761.726,385.287L759.26,385.884L754.054,389.945C753.46,390.406 752.695,390.591 751.955,390.453L745.476,389.221L718.078,384.007L715.612,384.604ZM715.612,384.604L743.01,389.818L751.761,391.484C752.796,391.678 753.866,391.419 754.699,390.773L761.726,385.287L759.26,385.884L754.054,389.945C753.46,390.406 752.695,390.591 751.955,390.453L745.476,389.221L718.078,384.007L715.612,384.604Z" style="fill:rgb(63,61,86);fill-rule:nonzero;"/>
        </g>
        <g transform="matrix(1,0,0,1,-323.066,-243.096)">
            <path d="M827.129,422.967C826.087,418.639 828.784,414.219 833.11,413.166L861.351,406.329C861.968,406.182 862.6,406.108 863.234,406.108C867.688,406.108 871.353,409.773 871.353,414.227C871.353,417.952 868.789,421.222 865.172,422.111L836.93,428.948C832.602,429.991 828.181,427.293 827.129,422.967Z" style="fill-rule:nonzero;"/>
        </g>
        <g transform="matrix(0.965567,-0.260154,0.260154,0.965567,-36.8889,104.562)">
            <text x="370.107px" y="248.227px" style="font-family:'CourierNewPSMT', 'Courier New', monospace;font-size:27.341px;">vitalik.eth</text>
            <text x="386.514px" y="275.568px" style="font-family:'CourierNewPSMT', 'Courier New', monospace;font-size:27.341px;">@signer.is</text>
        </g>
    </g>
    <circle cx="203.277" cy="189" r="7" style="fill:white;"/>
    <g transform="matrix(0.695583,0,0,0.695583,40.7678,67.5124)">
        <text x="35.972px" y="272.356px" style="font-family:'CourierNewPSMT', 'Courier New', monospace;font-size:43.129px;">vitalik</text>
        <text x="35.972px" y="315.486px" style="font-family:'CourierNewPSMT', 'Courier New', monospace;font-size:43.129px;">@gmail.com</text>
    </g>
</svg>
