<?xml version="1.0" encoding="UTF-8" standalone="no"?>
<!DOCTYPE svg PUBLIC "-//W3C//DTD SVG 1.1//EN" "http://www.w3.org/Graphics/SVG/1.1/DTD/svg11.dtd">
<svg width="100%" height="100%" viewBox="0 0 758 599" version="1.1" xmlns="http://www.w3.org/2000/svg" xmlns:xlink="http://www.w3.org/1999/xlink" xml:space="preserve" xmlns:serif="http://www.serif.com/" style="fill-rule:evenodd;clip-rule:evenodd;stroke-linejoin:round;stroke-miterlimit:2;">
    <g transform="matrix(1,0,0,1,-221.276,-150.961)">
        <path d="M338.61,586.941L290.609,570.17C285.325,543.997 286.51,516.924 294.061,491.312C312.271,535.152 369.065,547.408 400.599,582.891C420.337,605.447 428.761,635.809 423.466,665.31L432.657,700.18C384.627,694.672 341.351,668.368 314.346,628.269C306.966,617.073 301.025,604.992 296.664,592.312C317.384,590.842 338.61,586.941 338.61,586.941Z" style="fill:rgb(242,242,242);fill-rule:nonzero;"/>
    </g>
    <g transform="matrix(1,0,0,1,-221.276,-150.961)">
        <path d="M393.718,482.241L360.198,444.009C368.487,418.626 382.849,395.647 402.033,377.073C396.295,424.196 439.692,462.83 449.666,509.24C455.739,538.591 448.12,569.165 428.985,592.234L419.814,627.11C380.723,598.666 356.009,554.462 352.25,506.264C351.339,492.886 352.118,479.446 354.566,466.262C373.323,475.185 393.718,482.241 393.718,482.241Z" style="fill:rgb(242,242,242);fill-rule:nonzero;"/>
    </g>
    <g transform="matrix(1,0,0,1,-221.276,-150.961)">
        <path d="M673.779,604.792L431.42,604.792C424.299,604.792 418.508,606.225 418.508,607.997L418.508,702.792L686.724,702.792L686.724,607.997C686.724,606.225 680.934,604.792 673.779,604.792Z" style="fill:rgb(242,242,242);fill-rule:nonzero;"/>
    </g>
    <g transform="matrix(1,0,0,1,-221.276,-150.961)">
        <path d="M971.217,703.693L222.467,704.001C221.814,704.001 221.276,703.463 221.276,702.81C221.276,702.157 221.814,701.619 222.467,701.619C222.467,701.619 971.217,701.312 971.217,701.312C971.869,701.314 972.404,701.851 972.404,702.503C972.404,703.155 971.869,703.691 971.217,703.693Z" style="fill:rgb(202,202,202);fill-rule:nonzero;"/>
    </g>
    <path d="M271.281,546.06L269.016,564.511L339.105,582.027L342.448,554.795L271.281,546.06Z" style="fill:rgb(158,97,106);fill-rule:nonzero;"/>
    <g transform="matrix(1,0,0,1,-221.276,-150.961)">
        <path d="M505.933,692.551L504.074,722.244L491.445,720.694L468.651,746.343C467.143,748.04 464.979,749.012 462.709,749.012C458.349,749.012 454.761,745.424 454.761,741.064C454.761,740.74 454.781,740.417 454.82,740.095L459.128,705.002L472.362,700.486L460.16,696.591L461.784,683.359L505.933,692.551Z" style="fill:rgb(47,46,65);fill-rule:nonzero;"/>
    </g>
    <path d="M476.038,555.143L494.076,559.638L519.999,492.205L493.377,485.57L476.038,555.143Z" style="fill:rgb(158,97,106);fill-rule:nonzero;"/>
    <g transform="matrix(1,0,0,1,-221.276,-150.961)">
        <path d="M743.354,735.842L720.674,710.092L723.754,697.742L720.544,697.142L720.524,697.142L700.484,693.402L694.504,692.282L680.004,734.982L692.944,738.212L698.294,726.572L700.534,737.262L701.164,740.252L735.474,748.802C736.102,748.958 736.748,749.038 737.395,749.038C741.753,749.038 745.339,745.452 745.339,741.095C745.339,739.161 744.632,737.292 743.354,735.842L743.354,735.842Z" style="fill:rgb(47,46,65);fill-rule:nonzero;"/>
    </g>
    <g transform="matrix(1,0,0,1,-221.276,-150.961)">
        <path d="M545.964,699.092L552.504,698.062C545.484,705.372 538.744,710.202 532.344,711.702L535.444,700.742L545.964,699.092Z" style="fill:rgb(47,46,65);fill-rule:nonzero;"/>
    </g>
    <g transform="matrix(1,0,0,1,-221.276,-150.961)">
        <path d="M737.004,666.182C730.814,680.022 726.354,688.882 726.354,688.882L724.144,687.722L718.324,684.672L704.464,677.402L702.084,676.152L702.764,662.932L705.784,604.472L707.064,579.832L654.234,607.752L591.724,640.792C589.164,645.252 586.62,649.592 584.094,653.812L541.624,624.682L584.724,561.792L609.844,550.052L604.424,549.002C605.809,546.999 607.376,545.128 609.104,543.412L611.004,542.342C611.004,542.342 730.534,476.502 764.924,510.262C767.89,513.281 770.115,516.947 771.424,520.972C783.214,554.832 753.764,628.742 737.004,666.182Z" style="fill:rgb(47,46,65);fill-rule:nonzero;"/>
    </g>
    <g transform="matrix(1,0,0,1,-221.276,-150.961)">
        <path d="M710.704,728.112C708.129,731.961 704.633,735.107 700.534,737.262C697.061,739.161 693.384,740.661 689.574,741.732C638.894,756.542 527.984,727.112 527.984,727.112L532.344,711.702L535.444,700.742L545.964,699.092L552.504,698.062L630.724,685.792L609.174,671.012L584.094,653.812L541.624,624.682L490.724,601.792C431.724,554.792 481.124,502.092 481.124,502.092L514.144,478.692L524.864,471.092L590.724,504.792L609.844,550.052L615.724,563.962L654.234,607.752L702.764,662.932L703.144,663.362C704.547,664.427 705.868,665.597 707.094,666.862C707.544,667.302 708.014,667.792 708.494,668.322C712.856,673.041 716.202,678.606 718.324,684.672C719.702,688.672 720.451,692.862 720.544,697.092C720.554,697.107 720.554,697.127 720.544,697.142C720.764,705.952 718.234,716.342 710.704,728.112Z" style="fill:rgb(47,46,65);fill-rule:nonzero;"/>
    </g>
    <g transform="matrix(1,0,0,1,-221.276,-150.961)">
        <path d="M458.549,524.335C455.923,523.542 454.586,522.577 454.342,521.298C453.984,519.421 456.094,517.747 458.538,515.808C460.242,514.458 464.738,512.107 463.094,511.383C438.177,500.412 498.756,344.654 516.334,326.954C519.906,323.358 519.48,316.058 524.241,309.562C537.243,291.823 548.651,288.609 571.376,282.208C573.221,281.688 575.143,281.144 577.142,280.575C579.729,279.837 577.002,287.185 578.35,282.259C579.849,276.784 581.398,271.121 585.119,268.414L585.362,268.237L585.66,268.256C592.547,268.712 615.031,272.486 626.562,280.628L626.721,280.742L626.814,280.913C628.94,284.878 627.436,290.861 625.982,296.647C624.788,301.397 627.661,293.882 628.804,296.324C637.544,314.985 652.57,319.21 652.723,319.252L653.47,319.454L653.321,320.212C657.249,340.58 630.306,403.683 624.481,446.175C618.563,489.344 652.298,537.965 602.724,529.792C602.838,530.167 621.02,567.495 620.724,567.792C616.216,572.306 468.448,527.324 458.549,524.335Z" style="fill:rgb(230,230,230);fill-rule:nonzero;"/>
    </g>
    <g transform="matrix(1,0,0,1,-221.276,-150.961)">
        <path d="M786.548,295.317C786.69,296.126 786.762,296.946 786.762,297.767C786.762,305.542 780.364,311.94 772.588,311.94C772.575,311.94 772.562,311.94 772.549,311.94L755.904,359.477L740.043,338.657L758.281,296.707C758.794,289.277 765.05,283.439 772.497,283.439C779.423,283.439 785.395,288.488 786.548,295.317Z" style="fill:rgb(158,97,106);fill-rule:nonzero;"/>
    </g>
    <g transform="matrix(1,0,0,1,-221.276,-150.961)">
        <path d="M713.297,427.789L683.127,421.265C628.709,404.034 610.05,382.769 603.966,367.96C597.475,352.16 603.39,340.595 603.646,340.112L603.801,339.903L623.318,320.909C627.873,316.477 633.984,313.994 640.34,313.994C647.977,313.994 655.187,317.578 659.798,323.666L699.431,375.997L717.784,351.133L726.685,344.011L731.487,330.551L749.903,310.517L771.224,320.383L763.197,368.826L752.456,375.394L751.949,382.526L751.773,382.734L713.297,427.789Z" style="fill:rgb(230,230,230);fill-rule:nonzero;"/>
    </g>
    <g transform="matrix(1,0,0,1,-221.276,-150.961)">
        <path d="M562.138,579.6C561.989,579.6 561.84,579.597 561.69,579.592C558.135,579.463 554.861,577.6 552.933,574.611C545.813,563.969 537.074,554.503 527.034,546.557C520.956,541.698 514.604,537.181 508.462,532.812C492.617,521.545 477.694,510.934 469.411,496.272C451.35,464.3 472.619,419.768 503.004,399.797C537.084,377.398 581.912,373.885 625.277,373.424C629.784,373.376 634.294,373.353 638.806,373.353C716.942,373.383 794.913,380.512 871.758,394.653C897.311,399.368 924.058,405.143 945.552,419.159C966.919,433.091 979.906,455.032 978.639,475.057C976.789,504.289 945.8,526.132 917.582,531.843C890.686,537.282 862.745,533.606 833.165,529.714C826.634,528.855 819.883,527.967 813.205,527.195C740.639,518.807 604.319,544.66 598.552,545.765L592.83,546.86L570.63,575.429C568.607,578.067 565.462,579.612 562.138,579.6Z" style="fill-rule:nonzero;"/>
    </g>
    <g transform="matrix(1,0,0,1,9.5174,0.702789)">
        <text x="342.695px" y="285.051px" style="font-family:'CourierNewPSMT', 'Courier New', monospace;font-size:16.388px;fill:white;">0x541e4937676329c18a671812bc7237eefc</text>
        <text x="342.695px" y="317.827px" style="font-family:'CourierNewPSMT', 'Courier New', monospace;font-size:16.388px;fill:white;">963da0d877119920357f806cf52fd54844f61</text>
        <text x="342.695px" y="350.604px" style="font-family:'CourierNewPSMT', 'Courier New', monospace;font-size:16.388px;fill:white;">a888554efb51c08</text>
    </g>
    <circle cx="565.834" cy="100.534" r="45.682" style="fill:white;"/>
    <g transform="matrix(1,0,0,1,-221.276,-150.961)">
        <path d="M787.11,297.736C761.743,297.736 740.87,276.862 740.87,251.495C740.87,226.129 761.743,205.255 787.11,205.255C812.476,205.255 833.35,226.129 833.35,251.495C833.321,276.851 812.466,297.707 787.11,297.736Z" style="fill:rgb(63,61,86);fill-rule:nonzero;"/>
    </g>
    <g transform="matrix(1,0,0,1,-5.42425,-2.12421)">
        <text x="541.058px" y="120.627px" style="font-family:'ArialMT', 'Arial', sans-serif;font-size:56.293px;fill:white;">0x</text>
    </g>
    <g transform="matrix(1,0,0,1,-221.276,-150.961)">
        <path d="M552.176,488.196C545.363,487.069 540.316,481.119 540.316,474.213C540.316,472.601 540.591,471 541.13,469.48L501.792,438.026L526.691,429.959L560.23,461.065C565.447,463.312 568.843,468.473 568.843,474.153C568.843,481.97 562.41,488.403 554.593,488.403C553.783,488.403 552.974,488.334 552.176,488.196L552.176,488.196Z" style="fill:rgb(158,97,106);fill-rule:nonzero;"/>
    </g>
    <g transform="matrix(1,0,0,1,-221.276,-150.961)">
        <path d="M451.455,375.193L467.606,348.888C501.894,303.252 528.14,292.692 544.128,291.859C561.187,290.969 570.138,300.382 570.51,300.783L570.655,300.998L582.11,325.706C583.601,328.923 584.373,332.426 584.373,335.971C584.373,346.55 577.496,355.98 567.423,359.212L504.915,379.269L522.295,404.823L526.066,415.582L537.175,424.572L549.975,448.585L533.602,465.433L490.555,441.809L487.917,429.499L481.355,426.658L481.217,426.422L451.455,375.193Z" style="fill:rgb(230,230,230);fill-rule:nonzero;"/>
    </g>
    <g id="b7175576-f1ba-43ba-8f76-518314c256be-765" transform="matrix(1,0,0,1,-221.276,-150.961)">
        <path d="M673.859,270.987L673.9,270.991C678.369,271.377 682.364,268.017 682.75,263.548L686.705,218.089C687.421,209.945 686.493,201.74 683.975,193.962C679.042,178.788 668.433,166.09 654.377,158.537C647.117,154.646 639.144,152.266 630.939,151.539C597.373,148.565 585.16,155.633 564.778,206.933C544.395,258.232 560.817,252.461 560.817,252.461C560.72,253.557 560.845,254.661 561.184,255.707C561.85,257.747 563.28,259.453 565.172,260.466C566.143,260.984 567.209,261.302 568.306,261.4C608.031,271.218 648.118,281.563 673.866,270.988L673.859,270.987Z" style="fill:rgb(47,46,65);fill-rule:nonzero;"/>
    </g>
    <g id="a02f472c-6a06-41c7-9b05-293ddf5937fe-766" transform="matrix(1,0,0,1,-221.276,-150.961)">
        <path d="M599.537,194.796C594.616,202.182 591.99,210.861 591.99,219.736C591.99,244.411 612.294,264.716 636.969,264.716C639.913,264.716 642.85,264.427 645.737,263.853C657.392,261.574 667.661,254.719 674.234,244.828C679.142,237.449 681.761,228.781 681.761,219.919C681.761,195.244 661.456,174.939 636.781,174.939C633.856,174.939 630.938,175.225 628.068,175.791C616.403,178.057 606.121,184.907 599.536,194.798L599.537,194.796Z" style="fill:rgb(158,97,106);fill-rule:nonzero;"/>
    </g>
    <g id="adbc6b4a-ced6-4270-bb29-8c8f4fd87f84-767" transform="matrix(1,0,0,1,-221.276,-150.961)">
        <path d="M700.801,223.043C701.367,216.602 700.633,210.113 698.642,203.962C698.09,188.885 693.624,175.256 675.236,175.951C669.53,172.896 663.268,171.02 656.823,170.435L647.728,169.597C647.626,169.588 647.524,169.579 647.421,169.57C621.101,167.296 597.572,187.084 595.298,213.404L595.219,214.315L614.46,216.067L622.618,198.302L622.333,216.788L632.27,217.697L636.384,208.734L636.243,218.054C651.074,230.943 673.439,231.476 700.713,223.954L700.801,223.043Z" style="fill:rgb(47,46,65);fill-rule:nonzero;"/>
    </g>
    <g id="e837c95d-b162-450d-9836-a61223397ab5-768" transform="matrix(1,0,0,1,-221.276,-150.961)">
        <path d="M639.58,266.561C639.753,268.057 639.503,269.572 638.859,270.932C638.534,271.629 638.113,272.278 637.609,272.858C637.177,273.352 636.689,273.793 636.153,274.173C634.568,275.292 632.635,275.81 630.702,275.634C630.582,275.622 630.461,275.608 630.341,275.592C630.221,275.576 630.102,275.557 629.982,275.535C629.861,275.515 629.741,275.491 629.622,275.463C629.503,275.436 629.384,275.406 629.264,275.374L622.541,273.538L614.88,252.617L613.278,271.03L582.705,262.736L589.503,184.598L641.551,189.378L640.134,190.761C635.425,195.405 632.088,201.26 630.492,207.678C628.908,214.182 628.451,220.91 629.139,227.569C629.786,234.302 631.077,240.958 632.996,247.444C634.667,253.188 636.668,258.831 638.988,264.345C639.288,265.052 639.487,265.798 639.58,266.561Z" style="fill:rgb(47,46,65);fill-rule:nonzero;"/>
    </g>
</svg>
